<?xml version="1.0" encoding="UTF-8"?>
<svg id="Layer_1" data-name="Layer 1" xmlns="http://www.w3.org/2000/svg" viewBox="0 0 201.59 81.66">
  <defs>
    <style>
      .cls-1 {
        fill: #010101;
      }
    </style>
  </defs>
  <polygon class="cls-1" points="91.56 0 122.25 26.9 93.32 53.53 124.24 81.66 95.55 81.66 65.86 55.03 36.93 54.52 23.95 35.35 84.08 35.35 92.79 27.19 84.47 20.02 13.82 19.81 0 0 91.56 0"/>
  <polygon class="cls-1" points="201.59 0 188.11 19.66 130.09 19.81 107.78 0 201.59 0"/>
  <path class="cls-1" d="M177.63,35.35l-12.98,19.17-27.58.36-13.58,11.36c-3.7-3.24-7.68-6.34-11.23-9.72-.61-.58-3.45-3.08-2.98-3.73l20.21-17.44h48.15Z"/>
</svg>